<?xml version="1.0" encoding="utf-8" ?>
<svg xmlns="http://www.w3.org/2000/svg" xmlns:ev="http://www.w3.org/2001/xml-events" xmlns:xlink="http://www.w3.org/1999/xlink" baseProfile="full" height="100%" version="1.1" width="100%">
  <defs/>
  <path d="M 156.0 44.0 L 124.0 44.0 L 124.0 80.0 L 123.98073890668879 80.39206856131824 L 123.92314112161293 80.78036128806451 L 123.82776134292884 81.16113870901785 L 123.69551813004514 81.53073372946037 L 123.52768505739343 81.88558694730399 L 123.32587844921018 82.2222809320784 L 123.09204181345095 82.53757313665459 L 122.82842712474618 82.82842712474618 L 122.53757313665459 83.09204181345095 L 122.2222809320784 83.32587844921018 L 121.88558694730399 83.52768505739343 L 121.53073372946037 83.69551813004514 L 121.16113870901785 83.82776134292884 L 120.78036128806451 83.92314112161293 L 120.39206856131824 83.98073890668879 L 120.0 84.0 L 84.0 84.0 L 84.0 116.0 L 120.0 116.0 L 120.39206856131824 116.01926109331121 L 120.78036128806451 116.07685887838707 L 121.16113870901785 116.17223865707116 L 121.53073372946037 116.30448186995486 L 121.88558694730399 116.47231494260657 L 122.2222809320784 116.67412155078982 L 122.53757313665459 116.90795818654905 L 122.82842712474618 117.17157287525382 L 123.09204181345095 117.46242686334541 L 123.32587844921018 117.7777190679216 L 123.52768505739343 118.11441305269601 L 123.69551813004514 118.46926627053963 L 123.82776134292884 118.83886129098215 L 123.92314112161293 119.21963871193549 L 123.98073890668879 119.60793143868176 L 124.0 120.0 L 124.0 156.0 L 156.0 156.0 L 156.0 120.0 L 156.0192610933112 119.60793143868176 L 156.07685887838707 119.21963871193549 L 156.17223865707118 118.83886129098215 L 156.30448186995486 118.46926627053963 L 156.47231494260657 118.11441305269601 L 156.6741215507898 117.7777190679216 L 156.90795818654905 117.46242686334541 L 157.17157287525382 117.17157287525382 L 157.46242686334543 116.90795818654905 L 157.7777190679216 116.67412155078982 L 158.11441305269602 116.47231494260657 L 158.46926627053963 116.30448186995486 L 158.83886129098215 116.17223865707116 L 159.2196387119355 116.07685887838707 L 159.60793143868176 116.01926109331121 L 160.0 116.0 L 196.0 116.0 L 196.0 84.0 L 160.0 84.0 L 159.60793143868176 83.98073890668879 L 159.2196387119355 83.92314112161293 L 158.83886129098215 83.82776134292884 L 158.46926627053963 83.69551813004514 L 158.11441305269602 83.52768505739343 L 157.7777190679216 83.32587844921018 L 157.46242686334543 83.09204181345095 L 157.17157287525382 82.82842712474618 L 156.90795818654905 82.53757313665459 L 156.6741215507898 82.2222809320784 L 156.47231494260657 81.88558694730399 L 156.30448186995486 81.53073372946037 L 156.17223865707118 81.16113870901785 L 156.07685887838707 80.78036128806451 L 156.0192610933112 80.39206856131824 L 156.0 80.0 L 156.0 44.0 " fill="burlywood" id="0_0"/>
  <path d="M 44.0 156.0 L 116.0 156.0 L 116.0 124.0 L 80.0 124.0 L 79.60793143868176 123.98073890668879 L 79.21963871193549 123.92314112161293 L 78.83886129098215 123.82776134292884 L 78.46926627053963 123.69551813004514 L 78.11441305269601 123.52768505739343 L 77.7777190679216 123.32587844921018 L 77.46242686334541 123.09204181345095 L 77.17157287525382 122.82842712474618 L 76.90795818654905 122.53757313665459 L 76.67412155078982 122.2222809320784 L 76.47231494260657 121.88558694730399 L 76.30448186995486 121.53073372946037 L 76.17223865707116 121.16113870901785 L 76.07685887838707 120.78036128806451 L 76.01926109331121 120.39206856131824 L 76.0 120.0 L 76.0 80.0 L 76.01926109331121 79.60793143868176 L 76.07685887838707 79.21963871193549 L 76.17223865707116 78.83886129098215 L 76.30448186995486 78.46926627053963 L 76.47231494260657 78.11441305269601 L 76.67412155078982 77.7777190679216 L 76.90795818654905 77.46242686334541 L 77.17157287525382 77.17157287525382 L 77.46242686334541 76.90795818654905 L 77.7777190679216 76.67412155078982 L 78.11441305269601 76.47231494260657 L 78.46926627053963 76.30448186995486 L 78.83886129098215 76.17223865707116 L 79.21963871193549 76.07685887838707 L 79.60793143868176 76.01926109331121 L 80.0 76.0 L 116.0 76.0 L 116.0 44.0 L 44.0 44.0 L 44.0 156.0 " fill="cadetblue" id="11_4"/>
  <path d="M 164.0 76.0 L 356.0 76.0 L 356.0 44.0 L 164.0 44.0 L 164.0 76.0 " fill="cadetblue" id="2_1"/>
  <path d="M 204.0 120.0 L 203.9807389066888 120.39206856131824 L 203.92314112161293 120.78036128806451 L 203.82776134292882 121.16113870901785 L 203.69551813004514 121.53073372946037 L 203.52768505739343 121.88558694730399 L 203.3258784492102 122.2222809320784 L 203.09204181345095 122.53757313665459 L 202.82842712474618 122.82842712474618 L 202.53757313665457 123.09204181345095 L 202.2222809320784 123.32587844921018 L 201.88558694730398 123.52768505739343 L 201.53073372946037 123.69551813004514 L 201.16113870901785 123.82776134292884 L 200.7803612880645 123.92314112161293 L 200.39206856131824 123.98073890668879 L 200.0 124.0 L 164.0 124.0 L 164.0 156.0 L 276.0 156.0 L 276.0 84.0 L 204.0 84.0 L 204.0 120.0 " fill="brown" id="38_8"/>
  <path d="M 284.0 84.0 L 284.0 156.0 L 436.0 156.0 L 436.0 124.0 L 320.0 124.0 L 319.60793143868176 123.98073890668879 L 319.2196387119355 123.92314112161293 L 318.83886129098215 123.82776134292884 L 318.46926627053966 123.69551813004514 L 318.114413052696 123.52768505739343 L 317.77771906792157 123.32587844921018 L 317.4624268633454 123.09204181345095 L 317.1715728752538 122.82842712474618 L 316.907958186549 122.53757313665459 L 316.67412155078983 122.2222809320784 L 316.4723149426066 121.88558694730399 L 316.3044818699548 121.53073372946037 L 316.17223865707115 121.16113870901785 L 316.0768588783871 120.78036128806451 L 316.01926109331123 120.39206856131824 L 316.0 120.0 L 316.0 84.0 L 284.0 84.0 " fill="burlywood" id="24_7"/>
  <path d="M 364.0 80.0 L 363.98073890668877 80.39206856131824 L 363.9231411216129 80.78036128806451 L 363.82776134292885 81.16113870901785 L 363.6955181300452 81.53073372946037 L 363.5276850573934 81.88558694730399 L 363.32587844921017 82.2222809320784 L 363.092041813451 82.53757313665459 L 362.8284271247462 82.82842712474618 L 362.5375731366546 83.09204181345095 L 362.22228093207843 83.32587844921018 L 361.885586947304 83.52768505739343 L 361.53073372946034 83.69551813004514 L 361.16113870901785 83.82776134292884 L 360.7803612880645 83.92314112161293 L 360.39206856131824 83.98073890668879 L 360.0 84.0 L 324.0 84.0 L 324.0 116.0 L 396.0 116.0 L 396.0 80.0 L 396.01926109331123 79.60793143868176 L 396.0768588783871 79.21963871193549 L 396.17223865707115 78.83886129098215 L 396.3044818699548 78.46926627053963 L 396.4723149426066 78.11441305269601 L 396.67412155078983 77.7777190679216 L 396.907958186549 77.46242686334541 L 397.1715728752538 77.17157287525382 L 397.4624268633454 76.90795818654905 L 397.77771906792157 76.67412155078982 L 398.114413052696 76.47231494260657 L 398.46926627053966 76.30448186995486 L 398.83886129098215 76.17223865707116 L 399.2196387119355 76.07685887838707 L 399.60793143868176 76.01926109331121 L 400.0 76.0 L 476.0 76.0 L 476.0 44.0 L 364.0 44.0 L 364.0 80.0 " fill="brown" id="48_10"/>
  <path d="M 516.0 44.0 L 484.0 44.0 L 484.0 80.0 L 483.98073890668877 80.39206856131824 L 483.9231411216129 80.78036128806451 L 483.82776134292885 81.16113870901785 L 483.6955181300452 81.53073372946037 L 483.5276850573934 81.88558694730399 L 483.32587844921017 82.2222809320784 L 483.092041813451 82.53757313665459 L 482.8284271247462 82.82842712474618 L 482.5375731366546 83.09204181345095 L 482.22228093207843 83.32587844921018 L 481.885586947304 83.52768505739343 L 481.53073372946034 83.69551813004514 L 481.16113870901785 83.82776134292884 L 480.7803612880645 83.92314112161293 L 480.39206856131824 83.98073890668879 L 480.0 84.0 L 404.0 84.0 L 404.0 116.0 L 440.0 116.0 L 440.39206856131824 116.01926109331121 L 440.7803612880645 116.07685887838707 L 441.16113870901785 116.17223865707116 L 441.53073372946034 116.30448186995486 L 441.885586947304 116.47231494260657 L 442.22228093207843 116.67412155078982 L 442.5375731366546 116.90795818654905 L 442.8284271247462 117.17157287525382 L 443.092041813451 117.46242686334541 L 443.32587844921017 117.7777190679216 L 443.5276850573934 118.11441305269601 L 443.6955181300452 118.46926627053963 L 443.82776134292885 118.83886129098215 L 443.9231411216129 119.21963871193549 L 443.98073890668877 119.60793143868176 L 444.0 120.0 L 444.0 156.0 L 476.0 156.0 L 476.0 120.0 L 476.01926109331123 119.60793143868176 L 476.0768588783871 119.21963871193549 L 476.17223865707115 118.83886129098215 L 476.3044818699548 118.46926627053963 L 476.4723149426066 118.11441305269601 L 476.67412155078983 117.7777190679216 L 476.907958186549 117.46242686334541 L 477.1715728752538 117.17157287525382 L 477.4624268633454 116.90795818654905 L 477.77771906792157 116.67412155078982 L 478.114413052696 116.47231494260657 L 478.46926627053966 116.30448186995486 L 478.83886129098215 116.17223865707116 L 479.2196387119355 116.07685887838707 L 479.60793143868176 116.01926109331121 L 480.0 116.0 L 516.0 116.0 L 516.0 44.0 " fill="cadetblue" id="61_11"/>
  <path d="M 524.0 44.0 L 524.0 120.0 L 523.9807389066888 120.39206856131824 L 523.923141121613 120.78036128806451 L 523.8277613429289 121.16113870901785 L 523.6955181300451 121.53073372946037 L 523.5276850573935 121.88558694730399 L 523.3258784492102 122.2222809320784 L 523.0920418134509 122.53757313665459 L 522.8284271247462 122.82842712474618 L 522.5375731366546 123.09204181345095 L 522.2222809320784 123.32587844921018 L 521.885586947304 123.52768505739343 L 521.5307337294604 123.69551813004514 L 521.1611387090179 123.82776134292884 L 520.7803612880646 123.92314112161293 L 520.3920685613183 123.98073890668879 L 520.0 124.0 L 484.0 124.0 L 484.0 156.0 L 596.0 156.0 L 596.0 124.0 L 560.0 124.0 L 559.6079314386817 123.98073890668879 L 559.2196387119354 123.92314112161293 L 558.8388612909821 123.82776134292884 L 558.4692662705396 123.69551813004514 L 558.114413052696 123.52768505739343 L 557.7777190679216 123.32587844921018 L 557.4624268633454 123.09204181345095 L 557.1715728752538 122.82842712474618 L 556.9079581865491 122.53757313665459 L 556.6741215507898 122.2222809320784 L 556.4723149426065 121.88558694730399 L 556.3044818699549 121.53073372946037 L 556.1722386570711 121.16113870901785 L 556.076858878387 120.78036128806451 L 556.0192610933112 120.39206856131824 L 556.0 120.0 L 556.0 44.0 L 524.0 44.0 " fill="burlywood" id="8_3"/>
  <path d="M 564.0 44.0 L 564.0 116.0 L 600.0 116.0 L 600.3920685613183 116.01926109331121 L 600.7803612880646 116.07685887838707 L 601.1611387090179 116.17223865707116 L 601.5307337294604 116.30448186995486 L 601.885586947304 116.47231494260657 L 602.2222809320784 116.67412155078982 L 602.5375731366546 116.90795818654905 L 602.8284271247462 117.17157287525382 L 603.0920418134509 117.46242686334541 L 603.3258784492102 117.7777190679216 L 603.5276850573935 118.11441305269601 L 603.6955181300451 118.46926627053963 L 603.8277613429289 118.83886129098215 L 603.923141121613 119.21963871193549 L 603.9807389066888 119.60793143868176 L 604.0 120.0 L 604.0 156.0 L 676.0 156.0 L 676.0 124.0 L 640.0 124.0 L 639.6079314386817 123.98073890668879 L 639.2196387119354 123.92314112161293 L 638.8388612909821 123.82776134292884 L 638.4692662705396 123.69551813004514 L 638.114413052696 123.52768505739343 L 637.7777190679216 123.32587844921018 L 637.4624268633454 123.09204181345095 L 637.1715728752538 122.82842712474618 L 636.9079581865491 122.53757313665459 L 636.6741215507898 122.2222809320784 L 636.4723149426065 121.88558694730399 L 636.3044818699549 121.53073372946037 L 636.1722386570711 121.16113870901785 L 636.076858878387 120.78036128806451 L 636.0192610933112 120.39206856131824 L 636.0 120.0 L 636.0 84.0 L 600.0 84.0 L 599.6079314386817 83.98073890668879 L 599.2196387119354 83.92314112161293 L 598.8388612909821 83.82776134292884 L 598.4692662705396 83.69551813004514 L 598.114413052696 83.52768505739343 L 597.7777190679216 83.32587844921018 L 597.4624268633454 83.09204181345095 L 597.1715728752538 82.82842712474618 L 596.9079581865491 82.53757313665459 L 596.6741215507898 82.2222809320784 L 596.4723149426065 81.88558694730399 L 596.3044818699549 81.53073372946037 L 596.1722386570711 81.16113870901785 L 596.076858878387 80.78036128806451 L 596.0192610933112 80.39206856131824 L 596.0 80.0 L 596.0 44.0 L 564.0 44.0 " fill="cadetblue" id="16_5"/>
  <path d="M 604.0 76.0 L 640.0 76.0 L 640.3920685613183 76.01926109331121 L 640.7803612880646 76.07685887838707 L 641.1611387090179 76.17223865707116 L 641.5307337294604 76.30448186995486 L 641.885586947304 76.47231494260657 L 642.2222809320784 76.67412155078982 L 642.5375731366546 76.90795818654905 L 642.8284271247462 77.17157287525382 L 643.0920418134509 77.46242686334541 L 643.3258784492102 77.7777190679216 L 643.5276850573935 78.11441305269601 L 643.6955181300451 78.46926627053963 L 643.8277613429289 78.83886129098215 L 643.923141121613 79.21963871193549 L 643.9807389066888 79.60793143868176 L 644.0 80.0 L 644.0 116.0 L 676.0 116.0 L 676.0 80.0 L 676.0192610933112 79.60793143868176 L 676.076858878387 79.21963871193549 L 676.1722386570711 78.83886129098215 L 676.3044818699549 78.46926627053963 L 676.4723149426065 78.11441305269601 L 676.6741215507898 77.7777190679216 L 676.9079581865491 77.46242686334541 L 677.1715728752538 77.17157287525382 L 677.4624268633454 76.90795818654905 L 677.7777190679216 76.67412155078982 L 678.114413052696 76.47231494260657 L 678.4692662705396 76.30448186995486 L 678.8388612909821 76.17223865707116 L 679.2196387119354 76.07685887838707 L 679.6079314386817 76.01926109331121 L 680.0 76.0 L 756.0 76.0 L 756.0 44.0 L 604.0 44.0 L 604.0 76.0 " fill="brown" id="46_9"/>
  <path d="M 796.0 44.0 L 764.0 44.0 L 764.0 80.0 L 763.9807389066888 80.39206856131824 L 763.923141121613 80.78036128806451 L 763.8277613429289 81.16113870901785 L 763.6955181300451 81.53073372946037 L 763.5276850573935 81.88558694730399 L 763.3258784492102 82.2222809320784 L 763.0920418134509 82.53757313665459 L 762.8284271247462 82.82842712474618 L 762.5375731366546 83.09204181345095 L 762.2222809320784 83.32587844921018 L 761.885586947304 83.52768505739343 L 761.5307337294604 83.69551813004514 L 761.1611387090179 83.82776134292884 L 760.7803612880646 83.92314112161293 L 760.3920685613183 83.98073890668879 L 760.0 84.0 L 684.0 84.0 L 684.0 156.0 L 716.0 156.0 L 716.0 120.0 L 716.0192610933112 119.60793143868176 L 716.076858878387 119.21963871193549 L 716.1722386570711 118.83886129098215 L 716.3044818699549 118.46926627053963 L 716.4723149426065 118.11441305269601 L 716.6741215507898 117.7777190679216 L 716.9079581865491 117.46242686334541 L 717.1715728752538 117.17157287525382 L 717.4624268633454 116.90795818654905 L 717.7777190679216 116.67412155078982 L 718.114413052696 116.47231494260657 L 718.4692662705396 116.30448186995486 L 718.8388612909821 116.17223865707116 L 719.2196387119354 116.07685887838707 L 719.6079314386817 116.01926109331121 L 720.0 116.0 L 796.0 116.0 L 796.0 44.0 " fill="burlywood" id="19_6"/>
  <path d="M 804.0 44.0 L 804.0 120.0 L 803.9807389066888 120.39206856131824 L 803.923141121613 120.78036128806451 L 803.8277613429289 121.16113870901785 L 803.6955181300451 121.53073372946037 L 803.5276850573935 121.88558694730399 L 803.3258784492102 122.2222809320784 L 803.0920418134509 122.53757313665459 L 802.8284271247462 122.82842712474618 L 802.5375731366546 123.09204181345095 L 802.2222809320784 123.32587844921018 L 801.885586947304 123.52768505739343 L 801.5307337294604 123.69551813004514 L 801.1611387090179 123.82776134292884 L 800.7803612880646 123.92314112161293 L 800.3920685613183 123.98073890668879 L 800.0 124.0 L 724.0 124.0 L 724.0 156.0 L 836.0 156.0 L 836.0 44.0 L 804.0 44.0 " fill="cadetblue" id="5_2"/>
</svg>
